<svg width="396" height="118.71140939597316" viewBox="0 0 447 134" class="kk-1j8o68f">
    <defs id="SvgjsDefs2559" />
    <g id="SvgjsG2560" featurekey="rootContainer" transform="matrix(1,0,0,1,0,0)" fill="#cdeafe">
      <rect xmlns="http://www.w3.org/2000/svg" width="447" height="134" rx="10" ry="10" />
    </g>
    <g
      id="SvgjsG2561" featurekey="nameLeftFeature-0"
      transform="matrix(2.516314328646855,0,0,2.516314328646855,18.893825844420043,34.20680956788737)" fill="#016080"
    >
      <path
        d="M10.713 6.074 l2.4805 0 l-5.1367 13.926 l-2.5098 0 l-5.1074 -13.926 l2.4707 0 l3.9063 11.123 z M20.0976125 20.18555 c-2.9492 0 -5.1563 -1.4063 -5.6055 -3.8672 l2.4023 -0.55664 c0.25391 1.6016 1.5723 2.4805 3.291 2.4805 c1.3574 0 2.5879 -0.57617 2.5684 -2.041 c-0.019531 -1.5234 -1.709 -1.9629 -3.5352 -2.4805 c-2.1094 -0.61523 -4.2773 -1.3184 -4.2773 -3.877 c0 -2.5977 2.1289 -3.9648 4.7754 -3.9648 c2.4414 0 4.7559 1.0254 5.293 3.5254 l-2.2559 0.56641 c-0.3125 -1.4844 -1.4648 -2.1387 -2.9199 -2.1387 c-1.2988 0 -2.5293 0.55664 -2.5293 1.9727 c0 1.2891 1.4746 1.6895 3.1641 2.1582 c2.1777 0.60547 4.6973 1.3477 4.6973 4.1406 c0 2.8809 -2.4121 4.082 -5.0684 4.082 z M34.228475 20.18555 c-4.0039 0 -7.0313 -2.7344 -7.0313 -7.1582 c0 -4.4043 3.0273 -7.1484 7.0313 -7.1484 c2.9297 0 5.332 1.4844 6.377 3.9746 l-2.1777 0.83008 c-0.72266 -1.6699 -2.3047 -2.627 -4.1992 -2.627 c-2.6367 0 -4.6973 1.8359 -4.6973 4.9707 c0 3.1543 2.0605 4.9805 4.6973 4.9805 c1.8945 0 3.4766 -0.94727 4.1992 -2.6172 l2.1777 0.83008 c-1.0449 2.4902 -3.4473 3.9648 -6.377 3.9648 z M49.36519375 20.18555 c-4.0039 0 -7.0313 -2.7441 -7.0313 -7.1582 c0 -4.4043 3.0273 -7.1484 7.0313 -7.1484 c3.9941 0 7.0215 2.7441 7.0215 7.1484 c0 4.4141 -3.0273 7.1582 -7.0215 7.1582 z M49.36519375 18.0176 c2.6367 0 4.6973 -1.8262 4.6973 -4.9902 c0 -3.1348 -2.0605 -4.9707 -4.6973 -4.9707 s-4.6973 1.8359 -4.6973 4.9707 c0 3.1641 2.0605 4.9902 4.6973 4.9902 z M59.414075 20 l0 -13.926 l4.7656 0 c4.3555 0 6.543 2.832 6.543 6.9531 c0 4.1309 -2.1875 6.9727 -6.543 6.9727 l-4.7656 0 z M61.748075 17.9102 l2.334 0 c2.8516 0 4.1895 -1.8457 4.1895 -4.8828 c0 -3.0176 -1.3379 -4.873 -4.1895 -4.873 l-2.334 0 l0 9.7559 z M81.572240625 8.154 l-5.4102 0 l0 3.8574 l4.7852 0 l0 2.0605 l-4.7852 0 l0 3.8379 l5.4102 0 l0 2.0898 l-7.7734 0 l0 -13.926 l7.7734 0 l0 2.0801 z"
      />
    </g>
    <g
      id="SvgjsG2562" featurekey="inlineSymbolFeature-0"
      transform="matrix(0.18644109109363996,0,0,0.18644109109363996,216.42536376519678,1.722464584061381)"
      fill="#137dc5"
    >
      <g xmlns="http://www.w3.org/2000/svg">
        <path
          d="M324.2,313.6c0,14.2,11.6,25.8,25.8,25.8c14.2,0,25.8-11.6,25.8-25.8c0-14.2-11.6-25.8-25.8-25.8   C335.8,287.8,324.2,299.4,324.2,313.6z M367.5,313.6c0,9.6-7.8,17.5-17.5,17.5c-9.7,0-17.5-7.8-17.5-17.5c0-9.6,7.9-17.5,17.5-17.5   C359.7,296.1,367.5,303.9,367.5,313.6z"
        />
        <path
          d="M480.7,456.7l5.6,6.1c4.1-3.8,8.1-7.7,12-11.9l-6.1-5.6C488.5,449.3,484.6,453.1,480.7,456.7L480.7,456.7z"
        />
        <path
          d="M433.3,488.7l3.6,7.5c10.8-5.1,21.1-11.3,30.9-18.2l-4.8-6.7C453.5,477.9,443.6,483.7,433.3,488.7L433.3,488.7z"
        />
        <path d="M396.5,501.8l2,8c5.4-1.3,10.9-2.9,16.2-4.7l-2.6-7.8C406.9,499,401.7,500.5,396.5,501.8L396.5,501.8z" />
        <path d="M408.6,120.2c-5.4-1.6-10.9-3-16.3-4.2l-1.7,8.1c5.3,1.1,10.5,2.5,15.7,4L408.6,120.2z" />
        <path d="M461.1,144.7c-9.7-6.4-20-12-30.6-16.6l-3.3,7.6c10.2,4.4,20.1,9.8,29.4,15.9L461.1,144.7z" />
        <path d="M552,311.3l-8.3,0.1l0,2.2c0,10.4-0.8,20.9-2.5,31.1l8.2,1.3c1.7-10.7,2.6-21.6,2.6-32.5L552,311.3z" />
        <path
          d="M498.1,188.5l6.3-5.3c-7.5-8.9-15.8-17.1-24.7-24.6l-5.3,6.3C482.9,172.1,490.9,180,498.1,188.5L498.1,188.5z"
        />
        <path d="M535,232.3c-4.7-10.6-10.3-20.9-16.7-30.5l-6.9,4.6c6.2,9.3,11.6,19.1,16,29.3L535,232.3z" />
        <path d="M550.5,288.1c-1.5-11.5-3.9-23-7.3-34.1l-7.9,2.4c3.3,10.6,5.6,21.6,7,32.7L550.5,288.1z" />
        <path d="M531.4,382l7.7,2.9c2-5.2,3.8-10.6,5.3-16l-8-2.3C535,371.8,533.3,376.9,531.4,382L531.4,382z" />
        <path
          d="M161.5,358.6l-8,1.9c1.3,5.5,2.8,10.9,4.6,16.2l7.8-2.6C164.2,369,162.7,363.8,161.5,358.6L161.5,358.6z"
        />
        <path
          d="M232.1,159.8l-5-6.6c-9.2,7.1-17.8,15-25.7,23.5l6.1,5.6C214.9,174.2,223.2,166.6,232.1,159.8L232.1,159.8z"
        />
        <path
          d="M280.5,132.6l-3-7.7c-10.8,4.2-21.4,9.3-31.3,15.3l4.3,7.1C260,141.6,270.1,136.6,280.5,132.6L280.5,132.6z"
        />
        <path
          d="M156.2,313.6c0-3.5,0.1-6.9,0.3-10.4l-8.3-0.4c-0.2,3.6-0.3,7.2-0.3,10.8c0,8,0.5,16.1,1.4,24l8.2-1   C156.7,329,156.2,321.3,156.2,313.6L156.2,313.6z"
        />
        <path
          d="M167.3,248.7l-7.8-2.8c-3.9,10.9-6.8,22.3-8.8,33.7l8.2,1.4C160.8,270.1,163.6,259.2,167.3,248.7L167.3,248.7z"
        />
        <path
          d="M193.3,199.6l-6.7-4.9c-6.8,9.4-12.9,19.4-18,29.8l7.4,3.6C180.9,218.2,186.7,208.6,193.3,199.6L193.3,199.6z"
        />
        <path
          d="M317.7,122.5l-1.4-8.2c-5.6,0.9-11.1,2.1-16.5,3.5l2.1,8C307,124.5,312.4,123.4,317.7,122.5L317.7,122.5z"
        />
        <path d="M278.2,502.5c5.3,2,10.6,3.8,16,5.3l2.3-7.9c-5.2-1.5-10.3-3.2-15.4-5.1L278.2,502.5z" />
        <path d="M224.7,472.1c9.7,7.7,20.1,14.5,31,20.2l3.9-7.3c-10.4-5.5-20.4-12-29.7-19.4L224.7,472.1z" />
        <path d="M194.9,443.1c3.6,4.3,7.4,8.5,11.4,12.5l5.9-5.8c-3.8-3.8-7.4-7.8-10.9-12L194.9,443.1z" />
        <path
          d="M336.3,285.5c2.5-1.2,5.2-2.1,8-2.7l-12.4-21.5c-1.6-2.8-2.6-8.1-2.2-11.3L351,108c0.1-0.4,0.2-0.8,0.3-1.1   c0.8,1.2,1.7,3.3,1.7,5.7l0.1,169.9c2.9,0.3,5.7,1,8.3,2l-0.1-171.8c0-4.8-2.3-11.3-6.6-13.7c-2.1-1.2-4.5-1.3-6.6-0.2   c-2.7,1.3-4.6,4.3-5.1,8.1l-21.2,142c-0.8,5.1,0.6,12.2,3.2,16.6L336.3,285.5z"
        />
        <path
          d="M530,410.6l-112.4-89.3c-4-3.2-10.9-5.6-16-5.6h-20.4c-0.2,2.9-0.8,5.6-1.7,8.3h22.2c3.2,0,8.3,1.8,10.8,3.8l112.4,89.3   c0.4,0.3,0.6,0.6,0.8,0.8c-1.4,0.1-3.8-0.2-5.8-1.4l-145.3-83.7c-1.8,2.3-3.8,4.3-6.2,6l147.3,84.9c2.6,1.5,6,2.5,9.3,2.5   c2.1,0,4.2-0.4,5.9-1.4c2.1-1.2,3.3-3.3,3.5-5.6C534.6,416.2,533,413.1,530,410.6L530,410.6z"
        />
        <path
          d="M356,344.3l13.4,246.3c0.1,0.8-0.2,1.6-0.8,2.2c-0.6,0.6-1.3,0.9-2.2,0.9h-32.6c-0.9,0-1.6-0.3-2.2-0.9   c-0.6-0.6-0.8-1.4-0.8-2.2l13.4-246.3c-2.9-0.6-5.6-1.5-8.1-2.8l-13.5,248.6c-0.2,3.1,0.9,6.1,3,8.4c2.1,2.2,5.1,3.5,8.2,3.5h32.6   c3.2,0,6.1-1.3,8.2-3.5c2.1-2.3,3.2-5.2,3-8.4l-13.5-248.7C361.6,342.7,358.9,343.7,356,344.3L356,344.3z"
        />
        <path
          d="M326.3,333.9l-12.4,21.6c-1.6,2.8-5.7,6.3-8.7,7.5l-133.4,52.9c-0.4,0.2-0.8,0.3-1.1,0.3c0.6-1.3,2.1-3.1,4.1-4.3   l146.9-85.3c-1.2-2.5-2-5.3-2.5-8.1l-148.6,86.3c-4.3,2.5-8.5,7.6-8.5,12.6c0,2.4,1.2,4.5,3.1,5.8c1.3,0.9,3,1.4,4.8,1.4   c1.5,0,3.2-0.3,4.8-1l133.5-52.9c4.8-1.9,10.3-6.7,12.8-11.1l11.5-20C330.2,337.9,328.1,336,326.3,333.9L326.3,333.9z"
        />
      </g>
    </g>
    <g
      id="SvgjsG2563" featurekey="nameRightFeature-0"
      transform="matrix(2.5511104899634267,0,0,2.5511104899634267,321.0868360858991,33.97727806927115)" fill="#137dc5"
    >
      <path
        d="M15.2053125 8.467 l-5.2344 0 l0 3.2031 l4.6387 0 l0 2.5488 l-4.6387 0 l0 3.1934 l5.2344 0 l0 2.5879 l-8.1836 0 l0 -14.111 l8.1836 0 l0 2.5781 z M16.679684375 20 l5.498 -7.3633 l-5.3418 -6.748 l3.5645 0 l3.5156 4.6289 l3.5156 -4.6289 l3.5645 0 l-5.3418 6.748 l5.498 7.3633 l-3.7305 0 l-3.5059 -4.9902 l-3.5059 4.9902 l-3.7305 0 z M41.445546875 5.888999999999999 l0 2.5781 l-3.3496 0 l0 11.533 l-2.9004 0 l0 -11.533 l-3.3691 0 l0 -2.5781 l9.6191 0 z"
      />
    </g>
  </svg>
